PathFileType	4	(X / Y / Z)	Demo_152250_11_September_2019	Demo_152250_11_September_2019.trc
DataRate	CameraRate	NumFrames	NumMarkers	Units	OrigDataRate	OrigDataStartFrame	OrigNumFrames
50	50	14	25	m	50	1966	2190
Frame#	Time		SpineBase		SpineMid		Neck		Head		ShoulderLeft		ElbowLeft		WristLeft		HandLeft		ShoulderRight		ElbowRight		WristRight		HandRight		HipLeft		KneeLeft		AnkleLeft		FootLeft		HipRight		KneeRight		AnkleRight		FootRight		SpineShoulder		HandTipLeft		LeftThumb		HandTipRight		ThumbRight		
X1	Y1	Z1	X2	Y2	Z2	X3	Y3	Z3	X4	Y4	Z4	X5	Y5	Z5	X6	Y6	Z6	X7	Y7	Z7	X8	Y8	Z8	X9	Y9	Z9	X10	Y10	Z10	X11	Y11	Z11	X12	Y12	Z12	X13	Y13	Z13	X14	Y14	Z14	X15	Y15	Z15	X16	Y16	Z16	X17	Y17	Z17	X18	Y18	Z18	X19	Y19	Z19	X20	Y20	Z20	X21	Y21	Z21	X22	Y22	Z22	X23	Y23	Z23	X24	Y24	Z24	X25	Y25	Z25	
1917	57.849	-0.026	0.733	1.494	-0.039	1.023	1.459	-0.052	1.302	1.408	-0.068	1.448	1.384	-0.197	1.193	1.412	-0.240	0.956	1.433	-0.278	0.767	1.422	-0.293	0.696	1.398	0.110	1.198	1.398	0.182	0.952	1.489	0.236	0.760	1.600	0.241	0.714	1.616	-0.102	0.736	1.464	-0.122	0.433	1.524	-0.102	0.287	1.583	-0.095	0.273	1.547	0.053	0.742	1.457	0.126	0.445	1.510	0.120	0.292	1.566	0.108	0.281	1.532	-0.049	1.234	1.423	-0.283	0.622	1.407	-0.323	0.717	1.420	0.201	0.625	1.656	0.216	0.694	1.647
1918	57.866	-0.026	0.733	1.494	-0.039	1.023	1.459	-0.052	1.302	1.408	-0.068	1.448	1.384	-0.197	1.193	1.412	-0.240	0.956	1.433	-0.278	0.767	1.422	-0.293	0.696	1.398	0.110	1.198	1.398	0.182	0.952	1.489	0.236	0.760	1.600	0.241	0.714	1.616	-0.102	0.736	1.464	-0.122	0.433	1.524	-0.102	0.287	1.583	-0.095	0.273	1.547	0.053	0.742	1.457	0.126	0.445	1.510	0.120	0.292	1.566	0.108	0.281	1.532	-0.049	1.234	1.423	-0.283	0.622	1.407	-0.323	0.717	1.420	0.201	0.625	1.656	0.216	0.694	1.647
1919	57.882	-0.026	0.733	1.494	-0.039	1.023	1.459	-0.052	1.302	1.408	-0.068	1.448	1.384	-0.197	1.193	1.412	-0.240	0.956	1.433	-0.278	0.767	1.422	-0.293	0.696	1.398	0.110	1.198	1.398	0.182	0.952	1.489	0.236	0.760	1.600	0.241	0.714	1.616	-0.102	0.736	1.464	-0.122	0.433	1.524	-0.102	0.287	1.583	-0.095	0.273	1.547	0.053	0.742	1.457	0.126	0.445	1.510	0.120	0.292	1.566	0.108	0.281	1.532	-0.049	1.234	1.423	-0.283	0.622	1.407	-0.323	0.717	1.420	0.201	0.625	1.656	0.216	0.694	1.647
1920	57.899	-0.026	0.733	1.494	-0.039	1.023	1.459	-0.052	1.302	1.408	-0.068	1.448	1.384	-0.197	1.193	1.412	-0.240	0.956	1.433	-0.278	0.767	1.422	-0.293	0.696	1.398	0.110	1.198	1.398	0.182	0.952	1.489	0.236	0.760	1.600	0.241	0.714	1.616	-0.102	0.736	1.464	-0.122	0.433	1.524	-0.102	0.287	1.583	-0.095	0.273	1.547	0.053	0.742	1.457	0.126	0.445	1.510	0.120	0.292	1.566	0.108	0.281	1.532	-0.049	1.234	1.423	-0.283	0.622	1.407	-0.323	0.717	1.420	0.201	0.625	1.656	0.216	0.694	1.647
1921	57.916	-0.024	0.732	1.493	-0.036	1.022	1.457	-0.047	1.301	1.406	-0.064	1.448	1.381	-0.192	1.193	1.410	-0.238	0.957	1.433	-0.279	0.771	1.413	-0.294	0.702	1.383	0.110	1.195	1.396	0.170	0.950	1.484	0.224	0.762	1.598	0.234	0.717	1.616	-0.101	0.735	1.463	-0.121	0.433	1.525	-0.101	0.287	1.584	-0.094	0.273	1.547	0.054	0.741	1.455	0.128	0.444	1.510	0.121	0.292	1.565	0.108	0.281	1.532	-0.044	1.233	1.421	-0.286	0.630	1.383	-0.325	0.728	1.407	0.179	0.622	1.646	0.193	0.692	1.654
1922	57.932	-0.024	0.732	1.493	-0.036	1.022	1.457	-0.047	1.301	1.406	-0.064	1.448	1.381	-0.192	1.193	1.410	-0.238	0.957	1.433	-0.279	0.771	1.413	-0.294	0.702	1.383	0.110	1.195	1.396	0.170	0.950	1.484	0.224	0.762	1.598	0.234	0.717	1.616	-0.101	0.735	1.463	-0.121	0.433	1.525	-0.101	0.287	1.584	-0.094	0.273	1.547	0.054	0.741	1.455	0.128	0.444	1.510	0.121	0.292	1.565	0.108	0.281	1.532	-0.044	1.233	1.421	-0.286	0.630	1.383	-0.325	0.728	1.407	0.179	0.622	1.646	0.193	0.692	1.654
1923	57.949	-0.022	0.730	1.491	-0.033	1.021	1.455	-0.040	1.300	1.405	-0.059	1.447	1.378	-0.185	1.193	1.407	-0.234	0.958	1.432	-0.278	0.775	1.405	-0.293	0.707	1.375	0.110	1.193	1.395	0.168	0.953	1.478	0.260	0.807	1.586	0.271	0.735	1.620	-0.099	0.734	1.462	-0.119	0.433	1.526	-0.100	0.287	1.584	-0.094	0.273	1.547	0.056	0.739	1.454	0.130	0.443	1.509	0.122	0.292	1.564	0.109	0.281	1.532	-0.039	1.232	1.420	-0.287	0.635	1.369	-0.325	0.736	1.398	0.220	0.656	1.663	0.218	0.708	1.664
1924	57.966	-0.022	0.730	1.491	-0.033	1.021	1.455	-0.040	1.300	1.405	-0.059	1.447	1.378	-0.185	1.193	1.407	-0.234	0.958	1.432	-0.278	0.775	1.405	-0.293	0.707	1.375	0.110	1.193	1.395	0.168	0.953	1.478	0.260	0.807	1.586	0.271	0.735	1.620	-0.099	0.734	1.462	-0.119	0.433	1.526	-0.100	0.287	1.584	-0.094	0.273	1.547	0.056	0.739	1.454	0.130	0.443	1.509	0.122	0.292	1.564	0.109	0.281	1.532	-0.039	1.232	1.420	-0.287	0.635	1.369	-0.325	0.736	1.398	0.220	0.656	1.663	0.218	0.708	1.664
1925	57.982	-0.019	0.729	1.490	-0.027	1.019	1.454	-0.031	1.299	1.404	-0.050	1.447	1.375	-0.175	1.194	1.405	-0.227	0.959	1.431	-0.275	0.777	1.398	-0.287	0.709	1.368	0.121	1.189	1.395	0.240	0.998	1.483	0.360	0.861	1.578	0.404	0.796	1.607	-0.096	0.732	1.461	-0.116	0.432	1.526	-0.098	0.288	1.584	-0.093	0.273	1.547	0.059	0.737	1.452	0.132	0.442	1.508	0.124	0.292	1.563	0.110	0.281	1.531	-0.030	1.230	1.419	-0.286	0.637	1.360	-0.321	0.741	1.393	0.386	0.719	1.646	0.348	0.798	1.623
1926	57.999	-0.019	0.729	1.490	-0.027	1.019	1.454	-0.031	1.299	1.404	-0.050	1.447	1.375	-0.175	1.194	1.405	-0.227	0.959	1.431	-0.275	0.777	1.398	-0.287	0.709	1.368	0.121	1.189	1.395	0.240	0.998	1.483	0.360	0.861	1.578	0.404	0.796	1.607	-0.096	0.732	1.461	-0.116	0.432	1.526	-0.098	0.288	1.584	-0.093	0.273	1.547	0.059	0.737	1.452	0.132	0.442	1.508	0.124	0.292	1.563	0.110	0.281	1.531	-0.030	1.230	1.419	-0.286	0.637	1.360	-0.321	0.741	1.393	0.386	0.719	1.646	0.348	0.798	1.623
1927	58.016	-0.015	0.727	1.488	-0.020	1.018	1.453	-0.021	1.298	1.404	-0.042	1.447	1.373	-0.167	1.194	1.404	-0.217	0.960	1.428	-0.270	0.778	1.393	-0.278	0.710	1.366	0.137	1.186	1.398	0.291	1.027	1.484	0.432	0.905	1.569	0.484	0.846	1.598	-0.093	0.731	1.459	-0.113	0.432	1.527	-0.097	0.288	1.585	-0.093	0.273	1.547	0.062	0.736	1.451	0.135	0.441	1.508	0.126	0.292	1.563	0.110	0.281	1.531	-0.021	1.229	1.419	-0.284	0.639	1.355	-0.274	0.725	1.382	0.512	0.782	1.636	0.490	0.816	1.622
1928	58.033	-0.015	0.727	1.488	-0.020	1.018	1.453	-0.021	1.298	1.404	-0.042	1.447	1.373	-0.167	1.194	1.404	-0.217	0.960	1.428	-0.270	0.778	1.393	-0.278	0.710	1.366	0.137	1.186	1.398	0.291	1.027	1.484	0.432	0.905	1.569	0.484	0.846	1.598	-0.093	0.731	1.459	-0.113	0.432	1.527	-0.097	0.288	1.585	-0.093	0.273	1.547	0.062	0.736	1.451	0.135	0.441	1.508	0.126	0.292	1.563	0.110	0.281	1.531	-0.021	1.229	1.419	-0.284	0.639	1.355	-0.274	0.725	1.382	0.512	0.782	1.636	0.490	0.816	1.622
1929	58.049	-0.011	0.726	1.487	-0.012	1.017	1.452	-0.010	1.297	1.405	-0.033	1.446	1.372	-0.159	1.195	1.403	-0.205	0.959	1.425	-0.263	0.777	1.388	-0.266	0.710	1.366	0.153	1.185	1.401	0.352	1.065	1.481	0.529	0.980	1.550	0.604	0.934	1.581	-0.088	0.730	1.457	-0.111	0.432	1.527	-0.095	0.288	1.585	-0.092	0.273	1.547	0.067	0.734	1.450	0.138	0.440	1.508	0.128	0.292	1.563	0.111	0.281	1.531	-0.011	1.229	1.419	-0.278	0.639	1.352	-0.242	0.701	1.377	0.666	0.882	1.613	0.601	0.914	1.588
1930	58.066	-0.011	0.726	1.487	-0.012	1.017	1.452	-0.010	1.297	1.405	-0.033	1.446	1.372	-0.159	1.195	1.403	-0.205	0.959	1.425	-0.263	0.777	1.388	-0.266	0.710	1.366	0.153	1.185	1.401	0.352	1.065	1.481	0.529	0.980	1.550	0.604	0.934	1.581	-0.088	0.730	1.457	-0.111	0.432	1.527	-0.095	0.288	1.585	-0.092	0.273	1.547	0.067	0.734	1.450	0.138	0.440	1.508	0.128	0.292	1.563	0.111	0.281	1.531	-0.011	1.229	1.419	-0.278	0.639	1.352	-0.242	0.701	1.377	0.666	0.882	1.613	0.601	0.914	1.588
